<svg width="20" height="20" viewBox="0 0 20 20" fill="none" xmlns="http://www.w3.org/2000/svg">
<g id="uil:calender">
<path id="Vector" d="M15.8337 3.33333H14.167V2.5C14.167 2.27899 14.0792 2.06703 13.9229 1.91075C13.7666 1.75447 13.5547 1.66667 13.3337 1.66667C13.1126 1.66667 12.9007 1.75447 12.7444 1.91075C12.5881 2.06703 12.5003 2.27899 12.5003 2.5V3.33333H7.50032V2.5C7.50032 2.27899 7.41253 2.06703 7.25625 1.91075C7.09997 1.75447 6.88801 1.66667 6.66699 1.66667C6.44598 1.66667 6.23402 1.75447 6.07774 1.91075C5.92146 2.06703 5.83366 2.27899 5.83366 2.5V3.33333H4.16699C3.50395 3.33333 2.86807 3.59673 2.39923 4.06557C1.93038 4.53441 1.66699 5.17029 1.66699 5.83333V15.8333C1.66699 16.4964 1.93038 17.1323 2.39923 17.6011C2.86807 18.0699 3.50395 18.3333 4.16699 18.3333H15.8337C16.4967 18.3333 17.1326 18.0699 17.6014 17.6011C18.0703 17.1323 18.3337 16.4964 18.3337 15.8333V5.83333C18.3337 5.17029 18.0703 4.53441 17.6014 4.06557C17.1326 3.59673 16.4967 3.33333 15.8337 3.33333ZM16.667 15.8333C16.667 16.0543 16.5792 16.2663 16.4229 16.4226C16.2666 16.5789 16.0547 16.6667 15.8337 16.6667H4.16699C3.94598 16.6667 3.73402 16.5789 3.57774 16.4226C3.42146 16.2663 3.33366 16.0543 3.33366 15.8333V10H16.667V15.8333ZM16.667 8.33333H3.33366V5.83333C3.33366 5.61232 3.42146 5.40036 3.57774 5.24408C3.73402 5.0878 3.94598 5 4.16699 5H5.83366V5.83333C5.83366 6.05435 5.92146 6.26631 6.07774 6.42259C6.23402 6.57887 6.44598 6.66667 6.66699 6.66667C6.88801 6.66667 7.09997 6.57887 7.25625 6.42259C7.41253 6.26631 7.50032 6.05435 7.50032 5.83333V5H12.5003V5.83333C12.5003 6.05435 12.5881 6.26631 12.7444 6.42259C12.9007 6.57887 13.1126 6.66667 13.3337 6.66667C13.5547 6.66667 13.7666 6.57887 13.9229 6.42259C14.0792 6.26631 14.167 6.05435 14.167 5.83333V5H15.8337C16.0547 5 16.2666 5.0878 16.4229 5.24408C16.5792 5.40036 16.667 5.61232 16.667 5.83333V8.33333Z" fill="#30511F"/>
</g>
</svg>
